<?xml version="1.0" standalone="no"?><!DOCTYPE svg PUBLIC "-//W3C//DTD SVG 1.1//EN" "http://www.w3.org/Graphics/SVG/1.1/DTD/svg11.dtd"><svg t="1716185990884" class="icon" viewBox="0 0 1024 1024" version="1.1" xmlns="http://www.w3.org/2000/svg" p-id="5795" xmlns:xlink="http://www.w3.org/1999/xlink" width="200" height="200"><path d="M609.3 828.3H414.8v-82.4c-20.2-8.4-39.1-19.4-56.6-32.8l-71.5 41.3L189.5 586l71.3-41.2c-1.4-11-2.2-21.9-2.2-32.8 0-10.8 0.7-21.8 2.2-32.7l-71.3-41.2 97.2-168.4 71.5 41.3c17.5-13.4 36.4-24.4 56.6-32.8v-82.4h194.5v82.4c20.2 8.4 39.1 19.4 56.5 32.8l71.5-41.3 97.3 168.4-71.3 41.2c1.4 10.9 2.2 21.9 2.2 32.7 0 10.9-0.7 21.9-2.2 32.8l71.3 41.2-97.3 168.4-71.5-41.3c-17.5 13.4-36.4 24.4-56.5 32.8v82.4z m-139-55.5h83.4v-66.3l19.2-6.2c26.4-8.6 50.4-22.5 71.4-41.4l15-13.5 57.7 33.3 41.7-72.2-57.5-33.5 4.2-19.8c2.9-13.6 4.4-27.5 4.4-41.3 0-13.7-1.5-27.6-4.4-41.3l-4.2-19.8 57.5-33.2-41.7-72.2-57.7 33.3-15-13.5c-20.9-18.9-44.9-32.8-71.4-41.4l-19.2-6.2v-66.3h-83.4v66.3l-19.2 6.2c-26.5 8.6-50.5 22.5-71.4 41.4l-15 13.5-57.7-33.2-41.7 72.2 57.4 33.2-4.2 19.7c-2.9 13.9-4.4 27.8-4.4 41.4 0 13.6 1.5 27.5 4.4 41.4l4.2 19.7-57.4 33.2 41.7 72.2 57.7-33.3 15 13.5c20.9 18.9 44.9 32.8 71.4 41.4l19.2 6.2v66.5z" fill="#13227a" p-id="5796"></path><path d="M512 634.1c-67.3 0-122-54.8-122-122.1s54.7-122 122-122 122.1 54.7 122.1 122S579.3 634.1 512 634.1z m0-188.6c-36.7 0-66.5 29.8-66.5 66.5s29.8 66.5 66.5 66.5 66.5-29.8 66.5-66.5-29.8-66.5-66.5-66.5z" fill="#13227a" p-id="5797"></path></svg>